<svg id="wave" style="transform:rotate(180deg); transition: 0.3s" viewBox="0 0 1440 490" version="1.1" xmlns="http://www.w3.org/2000/svg"><defs><linearGradient id="sw-gradient-0" x1="0" x2="0" y1="1" y2="0"><stop stop-color="rgba(243, 106, 62, 1)" offset="0%"></stop><stop stop-color="rgba(255, 179, 11, 1)" offset="100%"></stop></linearGradient></defs><path style="transform:translate(0, 0px); opacity:1" fill="url(#sw-gradient-0)" d="M0,49L48,73.5C96,98,192,147,288,147C384,147,480,98,576,65.3C672,33,768,16,864,8.2C960,0,1056,0,1152,32.7C1248,65,1344,131,1440,130.7C1536,131,1632,65,1728,32.7C1824,0,1920,0,2016,16.3C2112,33,2208,65,2304,73.5C2400,82,2496,65,2592,114.3C2688,163,2784,278,2880,294C2976,310,3072,229,3168,179.7C3264,131,3360,114,3456,89.8C3552,65,3648,33,3744,49C3840,65,3936,131,4032,130.7C4128,131,4224,65,4320,98C4416,131,4512,261,4608,334.8C4704,408,4800,425,4896,367.5C4992,310,5088,180,5184,155.2C5280,131,5376,212,5472,261.3C5568,310,5664,327,5760,294C5856,261,5952,180,6048,187.8C6144,196,6240,294,6336,351.2C6432,408,6528,425,6624,400.2C6720,376,6816,310,6864,277.7L6912,245L6912,490L6864,490C6816,490,6720,490,6624,490C6528,490,6432,490,6336,490C6240,490,6144,490,6048,490C5952,490,5856,490,5760,490C5664,490,5568,490,5472,490C5376,490,5280,490,5184,490C5088,490,4992,490,4896,490C4800,490,4704,490,4608,490C4512,490,4416,490,4320,490C4224,490,4128,490,4032,490C3936,490,3840,490,3744,490C3648,490,3552,490,3456,490C3360,490,3264,490,3168,490C3072,490,2976,490,2880,490C2784,490,2688,490,2592,490C2496,490,2400,490,2304,490C2208,490,2112,490,2016,490C1920,490,1824,490,1728,490C1632,490,1536,490,1440,490C1344,490,1248,490,1152,490C1056,490,960,490,864,490C768,490,672,490,576,490C480,490,384,490,288,490C192,490,96,490,48,490L0,490Z"></path></svg>